<svg xmlns="http://www.w3.org/2000/svg" xmlns:xlink="http://www.w3.org/1999/xlink" width="500" zoomAndPan="magnify" viewBox="0 0 375 374.999991" height="500" preserveAspectRatio="xMidYMid meet" version="1.0"><defs><clipPath id="df25e0eac1"><path d="M 1 2 L 374 2 L 374 373.5 L 1 373.5 Z M 1 2 " clip-rule="nonzero"/></clipPath></defs><g clip-path="url(#df25e0eac1)"><path fill="#000000" d="M 365.136719 144.578125 L 205.988281 9.011719 C 205.347656 8.476562 204.6875 7.96875 204 7.488281 C 203.316406 7.007812 202.613281 6.558594 201.890625 6.140625 C 201.167969 5.726562 200.425781 5.339844 199.671875 4.984375 C 198.914062 4.632812 198.140625 4.3125 197.355469 4.027344 C 196.574219 3.742188 195.777344 3.492188 194.96875 3.273438 C 194.164062 3.058594 193.347656 2.878906 192.527344 2.730469 C 191.703125 2.585938 190.875 2.476562 190.042969 2.40625 C 189.210938 2.332031 188.378906 2.296875 187.542969 2.296875 C 186.707031 2.296875 185.875 2.332031 185.042969 2.40625 C 184.210938 2.476562 183.382812 2.585938 182.558594 2.730469 C 181.738281 2.878906 180.921875 3.058594 180.113281 3.273438 C 179.308594 3.492188 178.511719 3.742188 177.726562 4.027344 C 176.941406 4.3125 176.171875 4.632812 175.414062 4.984375 C 174.65625 5.339844 173.917969 5.726562 173.195312 6.140625 C 172.472656 6.558594 171.765625 7.007812 171.082031 7.488281 C 170.398438 7.96875 169.738281 8.476562 169.097656 9.011719 L 9.917969 144.578125 C 9.039062 145.3125 8.21875 146.113281 7.460938 146.976562 C 6.707031 147.839844 6.019531 148.753906 5.40625 149.722656 C 4.789062 150.691406 4.25 151.699219 3.789062 152.75 C 3.332031 153.800781 2.953125 154.882812 2.660156 155.992188 C 2.367188 157.101562 2.160156 158.226562 2.039062 159.367188 C 1.917969 160.507812 1.886719 161.652344 1.941406 162.796875 C 1.996094 163.945312 2.140625 165.078125 2.371094 166.203125 C 2.601562 167.328125 2.914062 168.425781 3.316406 169.503906 C 3.71875 170.605469 4.203125 171.667969 4.769531 172.695312 C 5.335938 173.722656 5.976562 174.699219 6.695312 175.628906 C 7.410156 176.558594 8.195312 177.425781 9.046875 178.230469 C 9.898438 179.039062 10.804688 179.777344 11.769531 180.441406 C 12.738281 181.109375 13.746094 181.699219 14.804688 182.210938 C 15.859375 182.71875 16.949219 183.148438 18.070312 183.488281 C 19.191406 183.832031 20.332031 184.085938 21.492188 184.253906 C 22.65625 184.421875 23.820312 184.496094 24.996094 184.484375 L 40.332031 184.484375 L 40.332031 346.683594 C 40.332031 361.484375 52.570312 373.527344 67.621094 373.527344 L 307.429688 373.527344 C 322.480469 373.527344 334.722656 361.484375 334.722656 346.683594 L 334.722656 184.5 L 350.058594 184.5 C 351.230469 184.515625 352.398438 184.4375 353.558594 184.269531 C 354.71875 184.105469 355.863281 183.847656 356.984375 183.503906 C 358.105469 183.164062 359.195312 182.734375 360.25 182.226562 C 361.304688 181.714844 362.316406 181.125 363.28125 180.457031 C 364.246094 179.792969 365.15625 179.054688 366.007812 178.246094 C 366.855469 177.441406 367.640625 176.574219 368.359375 175.644531 C 369.078125 174.714844 369.71875 173.738281 370.285156 172.710938 C 370.851562 171.683594 371.335938 170.621094 371.738281 169.519531 C 372.140625 168.441406 372.453125 167.34375 372.6875 166.21875 C 372.917969 165.09375 373.058594 163.957031 373.117188 162.808594 C 373.171875 161.664062 373.140625 160.519531 373.019531 159.375 C 372.898438 158.234375 372.691406 157.109375 372.398438 156 C 372.105469 154.890625 371.726562 153.808594 371.265625 152.757812 C 370.808594 151.703125 370.269531 150.695312 369.652344 149.726562 C 369.035156 148.757812 368.351562 147.839844 367.59375 146.976562 C 366.835938 146.113281 366.015625 145.3125 365.136719 144.578125 Z M 164.855469 352.84375 L 164.855469 284.429688 C 164.855469 283.757812 164.921875 283.09375 165.050781 282.433594 C 165.183594 281.777344 165.378906 281.136719 165.636719 280.515625 C 165.890625 279.894531 166.207031 279.304688 166.582031 278.746094 C 166.953125 278.1875 167.378906 277.671875 167.855469 277.195312 C 168.328125 276.71875 168.847656 276.296875 169.40625 275.921875 C 169.964844 275.550781 170.554688 275.234375 171.175781 274.976562 C 171.792969 274.71875 172.433594 274.523438 173.09375 274.394531 C 173.753906 274.261719 174.417969 274.195312 175.089844 274.195312 L 199.960938 274.195312 C 200.636719 274.195312 201.300781 274.261719 201.960938 274.394531 C 202.617188 274.523438 203.257812 274.71875 203.878906 274.976562 C 204.5 275.234375 205.089844 275.550781 205.648438 275.921875 C 206.207031 276.296875 206.722656 276.71875 207.199219 277.195312 C 207.675781 277.671875 208.097656 278.1875 208.472656 278.746094 C 208.84375 279.304688 209.160156 279.894531 209.417969 280.515625 C 209.675781 281.136719 209.871094 281.777344 210 282.433594 C 210.132812 283.09375 210.199219 283.757812 210.199219 284.429688 L 210.199219 352.84375 Z M 352.910156 162.609375 C 352.808594 162.898438 352.660156 163.164062 352.472656 163.402344 C 352.28125 163.644531 352.054688 163.847656 351.796875 164.015625 C 351.539062 164.183594 351.261719 164.304688 350.964844 164.382812 C 350.667969 164.457031 350.363281 164.484375 350.058594 164.460938 L 314.660156 164.460938 L 314.660156 346.683594 C 314.660156 350.394531 311.414062 353.460938 307.429688 353.460938 L 230.902344 353.460938 L 230.902344 284.429688 C 230.902344 283.417969 230.851562 282.40625 230.75 281.398438 C 230.652344 280.390625 230.5 279.390625 230.304688 278.398438 C 230.105469 277.402344 229.859375 276.421875 229.5625 275.453125 C 229.269531 274.484375 228.925781 273.53125 228.539062 272.597656 C 228.152344 271.660156 227.71875 270.746094 227.238281 269.851562 C 226.761719 268.960938 226.242188 268.09375 225.679688 267.25 C 225.117188 266.40625 224.511719 265.59375 223.871094 264.8125 C 223.226562 264.027344 222.546875 263.28125 221.832031 262.5625 C 221.113281 261.847656 220.367188 261.167969 219.582031 260.523438 C 218.800781 259.882812 217.988281 259.277344 217.144531 258.714844 C 216.300781 258.152344 215.433594 257.632812 214.542969 257.15625 C 213.648438 256.675781 212.734375 256.242188 211.796875 255.855469 C 210.863281 255.46875 209.910156 255.125 208.941406 254.832031 C 207.972656 254.535156 206.988281 254.289062 205.996094 254.089844 C 205.003906 253.894531 204.003906 253.742188 202.996094 253.644531 C 201.988281 253.542969 200.976562 253.492188 199.960938 253.492188 L 175.089844 253.492188 C 174.078125 253.492188 173.066406 253.542969 172.058594 253.644531 C 171.050781 253.742188 170.050781 253.894531 169.054688 254.089844 C 168.0625 254.289062 167.082031 254.535156 166.113281 254.832031 C 165.144531 255.125 164.191406 255.46875 163.253906 255.855469 C 162.320312 256.242188 161.40625 256.675781 160.511719 257.15625 C 159.617188 257.632812 158.75 258.152344 157.910156 258.714844 C 157.066406 259.277344 156.253906 259.882812 155.472656 260.523438 C 154.6875 261.167969 153.9375 261.847656 153.222656 262.5625 C 152.503906 263.28125 151.824219 264.027344 151.183594 264.8125 C 150.539062 265.59375 149.9375 266.40625 149.375 267.25 C 148.8125 268.09375 148.289062 268.960938 147.8125 269.851562 C 147.335938 270.746094 146.902344 271.660156 146.515625 272.597656 C 146.125 273.53125 145.785156 274.484375 145.488281 275.453125 C 145.195312 276.421875 144.949219 277.402344 144.75 278.398438 C 144.550781 279.390625 144.402344 280.390625 144.300781 281.398438 C 144.203125 282.40625 144.152344 283.417969 144.152344 284.429688 L 144.152344 353.460938 L 67.621094 353.460938 C 63.640625 353.460938 60.394531 350.421875 60.394531 346.683594 L 60.394531 164.4375 L 24.996094 164.4375 C 24.6875 164.460938 24.386719 164.4375 24.089844 164.359375 C 23.792969 164.285156 23.515625 164.164062 23.257812 163.996094 C 23 163.828125 22.777344 163.625 22.585938 163.382812 C 22.394531 163.140625 22.25 162.875 22.148438 162.585938 C 22.050781 162.347656 21.992188 162.101562 21.980469 161.84375 C 21.964844 161.585938 21.992188 161.332031 22.0625 161.082031 C 22.132812 160.835938 22.242188 160.605469 22.390625 160.394531 C 22.539062 160.183594 22.71875 160 22.925781 159.851562 L 182.105469 24.285156 C 182.484375 23.96875 182.886719 23.6875 183.3125 23.441406 C 183.742188 23.191406 184.1875 22.984375 184.648438 22.816406 C 185.113281 22.648438 185.585938 22.519531 186.074219 22.433594 C 186.558594 22.347656 187.050781 22.304688 187.542969 22.304688 C 188.035156 22.304688 188.523438 22.347656 189.011719 22.433594 C 189.496094 22.519531 189.972656 22.648438 190.433594 22.816406 C 190.898438 22.984375 191.34375 23.191406 191.769531 23.441406 C 192.199219 23.6875 192.601562 23.96875 192.976562 24.285156 L 352.125 159.851562 C 352.335938 160.003906 352.511719 160.183594 352.660156 160.394531 C 352.808594 160.605469 352.917969 160.835938 352.988281 161.085938 C 353.058594 161.332031 353.089844 161.585938 353.074219 161.84375 C 353.0625 162.097656 353.007812 162.347656 352.910156 162.585938 Z M 352.910156 162.609375 " fill-opacity="1" fill-rule="nonzero"/></g></svg>