<svg xmlns="http://www.w3.org/2000/svg" xmlns:xlink="http://www.w3.org/1999/xlink" width="500" zoomAndPan="magnify" viewBox="0 0 375 374.999991" height="500" preserveAspectRatio="xMidYMid meet" version="1.0"><defs><clipPath id="dc9069a932"><path d="M 0 57.613281 L 375 57.613281 L 375 317.113281 L 0 317.113281 Z M 0 57.613281 " clip-rule="nonzero"/></clipPath></defs><g clip-path="url(#dc9069a932)"><path fill="#000000" d="M 335.019531 57.691406 C 337.804688 57.691406 340.550781 57.988281 343.21875 58.539062 L 224.46875 143.273438 C 202.355469 159.054688 172.640625 159.054688 150.527344 143.273438 L 31.777344 58.539062 C 34.445312 57.988281 37.1875 57.691406 39.976562 57.691406 Z M 375 277.101562 C 375 287.613281 370.730469 297.902344 363.292969 305.335938 C 355.738281 312.882812 345.699219 317.035156 335.019531 317.035156 L 39.976562 317.035156 C 29.300781 317.035156 19.257812 312.882812 11.707031 305.335938 C 4.15625 297.796875 0 287.769531 0 277.101562 L 0 97.625 C 0 89.785156 2.265625 82.300781 6.453125 75.882812 L 133.757812 166.722656 C 149.835938 178.191406 168.664062 183.925781 187.5 183.925781 C 206.332031 183.925781 225.167969 178.191406 241.242188 166.722656 L 368.523438 75.898438 C 372.683594 82.335938 375 89.917969 375 97.625 Z M 375 277.101562 " fill-opacity="1" fill-rule="nonzero"/></g></svg>