<svg xmlns="http://www.w3.org/2000/svg" xmlns:xlink="http://www.w3.org/1999/xlink" width="500" zoomAndPan="magnify" viewBox="0 0 375 374.999991" height="500" preserveAspectRatio="xMidYMid meet" version="1.0"><path fill="#000000" d="M 43.6875 308.710938 L 120.929688 308.710938 L 120.929688 308.953125 C 120.929688 345.363281 150.59375 375 187.035156 375 C 223.476562 375 253.140625 345.363281 253.140625 308.953125 L 253.140625 308.710938 L 330.382812 308.710938 C 340.3125 308.710938 348.546875 300.605469 348.546875 290.566406 C 348.546875 280.523438 340.3125 272.417969 330.382812 272.417969 L 313.917969 272.417969 L 313.917969 154.113281 C 313.917969 90.484375 266.578125 37.742188 205.195312 28.910156 L 205.195312 18.144531 C 205.195312 8.105469 197.085938 0 187.035156 0 C 176.984375 0 168.875 8.105469 168.875 18.144531 L 168.875 28.910156 C 107.492188 37.742188 60.152344 90.484375 60.152344 154.113281 L 60.152344 272.417969 L 43.6875 272.417969 C 33.757812 272.417969 25.523438 280.523438 25.523438 290.566406 C 25.523438 300.605469 33.757812 308.710938 43.6875 308.710938 Z M 157.25 308.710938 L 216.820312 308.710938 L 216.820312 308.953125 C 216.820312 325.402344 203.378906 338.710938 187.035156 338.710938 C 170.691406 338.710938 157.25 325.402344 157.25 308.953125 Z M 157.25 308.710938 " fill-opacity="1" fill-rule="nonzero"/></svg>