<svg xmlns="http://www.w3.org/2000/svg" xmlns:xlink="http://www.w3.org/1999/xlink" width="500" zoomAndPan="magnify" viewBox="0 0 375 374.999991" height="500" preserveAspectRatio="xMidYMid meet" version="1.0"><defs><clipPath id="2520d9273c"><path d="M 24.609375 13 L 350.109375 13 L 350.109375 372 L 24.609375 372 Z M 24.609375 13 " clip-rule="nonzero"/></clipPath></defs><g clip-path="url(#2520d9273c)"><path fill="#000000" d="M 273.925781 179.746094 C 274.847656 178.433594 275.738281 177.097656 276.601562 175.746094 C 277.460938 174.390625 278.292969 173.015625 279.089844 171.625 C 279.890625 170.230469 280.65625 168.824219 281.390625 167.394531 C 282.128906 165.96875 282.828125 164.527344 283.5 163.066406 C 284.167969 161.605469 284.804688 160.132812 285.40625 158.644531 C 286.007812 157.15625 286.578125 155.65625 287.109375 154.144531 C 287.644531 152.628906 288.144531 151.105469 288.609375 149.566406 C 289.074219 148.03125 289.503906 146.484375 289.898438 144.929688 C 290.292969 143.371094 290.652344 141.808594 290.976562 140.234375 C 291.296875 138.664062 291.585938 137.082031 291.835938 135.5 C 292.089844 133.914062 292.304688 132.320312 292.484375 130.726562 C 292.664062 129.132812 292.804688 127.53125 292.914062 125.929688 C 293.019531 124.328125 293.089844 122.726562 293.125 121.121094 C 293.15625 119.515625 293.15625 117.910156 293.117188 116.304688 C 293.078125 114.699219 293 113.097656 292.886719 111.496094 C 292.777344 109.894531 292.628906 108.296875 292.445312 106.699219 C 292.257812 105.105469 292.039062 103.515625 291.78125 101.929688 C 291.523438 100.347656 291.230469 98.769531 290.902344 97.195312 C 290.574219 95.625 290.210938 94.0625 289.808594 92.507812 C 289.410156 90.953125 288.976562 89.40625 288.507812 87.871094 C 288.035156 86.335938 287.53125 84.8125 286.992188 83.300781 C 286.453125 81.789062 285.878906 80.292969 285.273438 78.804688 C 284.664062 77.320312 284.023438 75.847656 283.351562 74.390625 C 282.675781 72.933594 281.96875 71.492188 281.230469 70.070312 C 280.492188 68.644531 279.71875 67.238281 278.914062 65.847656 C 278.113281 64.457031 277.277344 63.085938 276.410156 61.738281 C 275.546875 60.386719 274.648438 59.054688 273.722656 57.742188 C 272.796875 56.433594 271.839844 55.144531 270.855469 53.875 C 269.871094 52.609375 268.855469 51.363281 267.816406 50.144531 C 266.773438 48.921875 265.707031 47.726562 264.609375 46.554688 C 263.515625 45.382812 262.390625 44.234375 261.242188 43.113281 C 260.097656 41.992188 258.921875 40.898438 257.726562 39.828125 C 256.527344 38.761719 255.304688 37.722656 254.0625 36.710938 C 252.816406 35.695312 251.546875 34.714844 250.257812 33.757812 C 248.96875 32.804688 247.660156 31.878906 246.328125 30.984375 C 244.996094 30.089844 243.644531 29.226562 242.273438 28.390625 C 240.902344 27.558594 239.511719 26.757812 238.105469 25.988281 C 236.695312 25.21875 235.273438 24.480469 233.832031 23.773438 C 232.390625 23.070312 230.933594 22.398438 229.464844 21.757812 C 227.992188 21.117188 226.507812 20.511719 225.007812 19.941406 C 223.507812 19.371094 221.996094 18.832031 220.472656 18.332031 C 218.949219 17.828125 217.414062 17.359375 215.871094 16.929688 C 214.328125 16.496094 212.773438 16.097656 211.210938 15.738281 C 209.648438 15.375 208.078125 15.046875 206.5 14.757812 C 204.921875 14.46875 203.339844 14.210938 201.75 13.996094 C 200.160156 13.777344 198.566406 13.59375 196.96875 13.449219 C 195.371094 13.300781 193.773438 13.191406 192.167969 13.121094 C 190.566406 13.046875 188.964844 13.011719 187.359375 13.011719 C 185.753906 13.011719 184.152344 13.046875 182.550781 13.121094 C 180.945312 13.191406 179.347656 13.300781 177.75 13.449219 C 176.152344 13.59375 174.558594 13.777344 172.96875 13.996094 C 171.378906 14.210938 169.796875 14.46875 168.21875 14.757812 C 166.640625 15.046875 165.070312 15.375 163.507812 15.738281 C 161.945312 16.097656 160.394531 16.496094 158.847656 16.929688 C 157.304688 17.359375 155.769531 17.828125 154.246094 18.332031 C 152.722656 18.832031 151.210938 19.371094 149.710938 19.941406 C 148.210938 20.511719 146.726562 21.117188 145.253906 21.757812 C 143.785156 22.398438 142.328125 23.070312 140.886719 23.773438 C 139.445312 24.480469 138.023438 25.21875 136.613281 25.988281 C 135.207031 26.757812 133.816406 27.558594 132.445312 28.390625 C 131.074219 29.226562 129.722656 30.089844 128.390625 30.984375 C 127.058594 31.878906 125.75 32.804688 124.460938 33.757812 C 123.171875 34.714844 121.902344 35.695312 120.65625 36.710938 C 119.414062 37.722656 118.191406 38.761719 116.992188 39.828125 C 115.796875 40.898438 114.621094 41.992188 113.476562 43.113281 C 112.328125 44.234375 111.203125 45.382812 110.109375 46.554688 C 109.011719 47.726562 107.945312 48.921875 106.902344 50.144531 C 105.863281 51.363281 104.847656 52.609375 103.863281 53.875 C 102.878906 55.144531 101.921875 56.433594 100.996094 57.742188 C 100.070312 59.054688 99.171875 60.386719 98.308594 61.738281 C 97.441406 63.085938 96.605469 64.457031 95.804688 65.847656 C 95 67.238281 94.226562 68.644531 93.488281 70.070312 C 92.75 71.492188 92.042969 72.933594 91.367188 74.390625 C 90.695312 75.847656 90.054688 77.320312 89.445312 78.804688 C 88.839844 80.292969 88.265625 81.789062 87.726562 83.300781 C 87.1875 84.8125 86.683594 86.335938 86.210938 87.871094 C 85.742188 89.40625 85.308594 90.953125 84.910156 92.507812 C 84.507812 94.0625 84.144531 95.625 83.816406 97.195312 C 83.488281 98.769531 83.195312 100.347656 82.9375 101.929688 C 82.679688 103.515625 82.460938 105.105469 82.273438 106.699219 C 82.089844 108.296875 81.941406 109.894531 81.832031 111.496094 C 81.71875 113.097656 81.640625 114.699219 81.601562 116.304688 C 81.5625 117.910156 81.5625 119.515625 81.59375 121.121094 C 81.628906 122.726562 81.699219 124.328125 81.804688 125.929688 C 81.914062 127.53125 82.054688 129.132812 82.234375 130.726562 C 82.414062 132.320312 82.628906 133.914062 82.882812 135.5 C 83.132812 137.082031 83.421875 138.664062 83.742188 140.234375 C 84.066406 141.808594 84.425781 143.371094 84.820312 144.929688 C 85.214844 146.484375 85.644531 148.03125 86.109375 149.566406 C 86.574219 151.105469 87.074219 152.628906 87.609375 154.144531 C 88.140625 155.65625 88.710938 157.15625 89.3125 158.644531 C 89.914062 160.132812 90.550781 161.605469 91.21875 163.066406 C 91.890625 164.527344 92.589844 165.96875 93.328125 167.394531 C 94.0625 168.824219 94.828125 170.230469 95.628906 171.625 C 96.425781 173.015625 97.257812 174.390625 98.117188 175.746094 C 98.980469 177.097656 99.871094 178.433594 100.792969 179.746094 C 98.082031 180.488281 95.410156 181.339844 92.769531 182.300781 C 90.128906 183.261719 87.53125 184.332031 84.980469 185.503906 C 82.425781 186.675781 79.925781 187.949219 77.476562 189.324219 C 75.027344 190.703125 72.636719 192.175781 70.308594 193.746094 C 67.976562 195.316406 65.714844 196.980469 63.519531 198.734375 C 61.328125 200.488281 59.207031 202.332031 57.164062 204.257812 C 55.117188 206.1875 53.15625 208.195312 51.273438 210.28125 C 49.390625 212.371094 47.597656 214.53125 45.890625 216.765625 C 44.1875 218.996094 42.574219 221.296875 41.054688 223.660156 C 39.535156 226.027344 38.113281 228.449219 36.792969 230.929688 C 35.472656 233.410156 34.253906 235.941406 33.136719 238.519531 C 32.019531 241.101562 31.011719 243.722656 30.105469 246.382812 C 29.203125 249.046875 28.410156 251.742188 27.726562 254.46875 C 27.042969 257.195312 26.46875 259.945312 26.007812 262.71875 C 25.550781 265.492188 25.203125 268.277344 24.96875 271.082031 C 24.734375 273.882812 24.613281 276.6875 24.609375 279.5 L 24.609375 355.277344 C 24.609375 355.8125 24.636719 356.34375 24.6875 356.875 C 24.738281 357.40625 24.816406 357.933594 24.921875 358.457031 C 25.027344 358.976562 25.15625 359.496094 25.308594 360.003906 C 25.464844 360.515625 25.644531 361.019531 25.847656 361.511719 C 26.050781 362.003906 26.28125 362.484375 26.53125 362.957031 C 26.78125 363.425781 27.054688 363.882812 27.351562 364.328125 C 27.648438 364.769531 27.964844 365.199219 28.304688 365.609375 C 28.640625 366.023438 29 366.417969 29.375 366.796875 C 29.753906 367.171875 30.148438 367.53125 30.558594 367.867188 C 30.972656 368.207031 31.398438 368.523438 31.84375 368.820312 C 32.285156 369.117188 32.742188 369.390625 33.210938 369.644531 C 33.683594 369.894531 34.164062 370.121094 34.65625 370.328125 C 35.148438 370.53125 35.648438 370.710938 36.160156 370.863281 C 36.671875 371.019531 37.1875 371.148438 37.710938 371.253906 C 38.230469 371.359375 38.757812 371.4375 39.289062 371.488281 C 39.820312 371.539062 40.351562 371.566406 40.882812 371.566406 L 333.835938 371.566406 C 334.367188 371.566406 334.898438 371.539062 335.429688 371.488281 C 335.960938 371.4375 336.488281 371.359375 337.007812 371.253906 C 337.53125 371.148438 338.046875 371.019531 338.558594 370.863281 C 339.070312 370.710938 339.570312 370.53125 340.0625 370.328125 C 340.554688 370.121094 341.035156 369.894531 341.507812 369.644531 C 341.976562 369.390625 342.433594 369.117188 342.875 368.820312 C 343.320312 368.523438 343.746094 368.207031 344.160156 367.867188 C 344.570312 367.53125 344.964844 367.171875 345.34375 366.796875 C 345.71875 366.417969 346.078125 366.023438 346.414062 365.609375 C 346.753906 365.199219 347.070312 364.769531 347.367188 364.328125 C 347.664062 363.882812 347.9375 363.425781 348.1875 362.957031 C 348.4375 362.484375 348.667969 362.003906 348.871094 361.511719 C 349.074219 361.019531 349.253906 360.515625 349.410156 360.003906 C 349.5625 359.496094 349.691406 358.976562 349.796875 358.457031 C 349.902344 357.933594 349.980469 357.40625 350.03125 356.875 C 350.082031 356.34375 350.109375 355.8125 350.109375 355.277344 L 350.109375 279.5 C 350.105469 276.6875 349.984375 273.882812 349.75 271.082031 C 349.515625 268.277344 349.167969 265.492188 348.707031 262.71875 C 348.25 259.945312 347.675781 257.195312 346.992188 254.46875 C 346.308594 251.742188 345.515625 249.046875 344.613281 246.382812 C 343.707031 243.722656 342.699219 241.101562 341.582031 238.519531 C 340.464844 235.941406 339.246094 233.410156 337.925781 230.929688 C 336.605469 228.449219 335.183594 226.027344 333.664062 223.660156 C 332.144531 221.296875 330.53125 218.996094 328.828125 216.765625 C 327.121094 214.53125 325.328125 212.371094 323.445312 210.28125 C 321.5625 208.195312 319.601562 206.1875 317.554688 204.257812 C 315.511719 202.332031 313.390625 200.488281 311.199219 198.734375 C 309.003906 196.980469 306.742188 195.316406 304.410156 193.746094 C 302.082031 192.175781 299.691406 190.703125 297.242188 189.324219 C 294.792969 187.949219 292.292969 186.675781 289.738281 185.503906 C 287.1875 184.332031 284.589844 183.261719 281.949219 182.300781 C 279.308594 181.339844 276.636719 180.488281 273.925781 179.746094 Z M 187.359375 45.785156 C 188.558594 45.785156 189.753906 45.816406 190.953125 45.875 C 192.148438 45.933594 193.34375 46.019531 194.539062 46.136719 C 195.730469 46.253906 196.921875 46.402344 198.105469 46.578125 C 199.292969 46.753906 200.472656 46.960938 201.648438 47.195312 C 202.824219 47.425781 203.992188 47.691406 205.15625 47.980469 C 206.316406 48.273438 207.472656 48.59375 208.617188 48.941406 C 209.765625 49.289062 210.902344 49.664062 212.03125 50.070312 C 213.160156 50.472656 214.277344 50.90625 215.386719 51.363281 C 216.492188 51.824219 217.589844 52.308594 218.671875 52.824219 C 219.757812 53.335938 220.828125 53.875 221.882812 54.441406 C 222.941406 55.007812 223.984375 55.597656 225.011719 56.214844 C 226.039062 56.832031 227.050781 57.472656 228.046875 58.136719 C 229.042969 58.804688 230.023438 59.496094 230.988281 60.210938 C 231.949219 60.925781 232.894531 61.664062 233.820312 62.421875 C 234.746094 63.183594 235.65625 63.96875 236.542969 64.773438 C 237.429688 65.578125 238.296875 66.40625 239.144531 67.253906 C 239.992188 68.101562 240.820312 68.972656 241.625 69.859375 C 242.429688 70.75 243.210938 71.65625 243.972656 72.585938 C 244.734375 73.511719 245.46875 74.457031 246.183594 75.421875 C 246.898438 76.382812 247.589844 77.363281 248.253906 78.363281 C 248.921875 79.359375 249.5625 80.371094 250.175781 81.402344 C 250.792969 82.429688 251.382812 83.472656 251.949219 84.53125 C 252.515625 85.589844 253.054688 86.660156 253.566406 87.746094 C 254.078125 88.832031 254.5625 89.925781 255.023438 91.035156 C 255.480469 92.144531 255.910156 93.261719 256.316406 94.390625 C 256.71875 95.519531 257.09375 96.660156 257.441406 97.808594 C 257.792969 98.957031 258.109375 100.113281 258.402344 101.273438 C 258.691406 102.4375 258.957031 103.609375 259.191406 104.785156 C 259.421875 105.960938 259.628906 107.144531 259.804688 108.332031 C 259.980469 109.515625 260.125 110.707031 260.246094 111.902344 C 260.363281 113.09375 260.449219 114.292969 260.507812 115.488281 C 260.566406 116.6875 260.597656 117.886719 260.597656 119.085938 C 260.597656 120.285156 260.566406 121.484375 260.507812 122.683594 C 260.449219 123.878906 260.363281 125.078125 260.246094 126.269531 C 260.125 127.464844 259.980469 128.65625 259.804688 129.839844 C 259.628906 131.027344 259.421875 132.210938 259.191406 133.386719 C 258.957031 134.5625 258.691406 135.734375 258.402344 136.898438 C 258.109375 138.058594 257.792969 139.214844 257.441406 140.363281 C 257.09375 141.511719 256.71875 142.652344 256.316406 143.78125 C 255.910156 144.910156 255.480469 146.027344 255.023438 147.136719 C 254.5625 148.246094 254.078125 149.339844 253.566406 150.425781 C 253.054688 151.511719 252.515625 152.582031 251.949219 153.640625 C 251.382812 154.699219 250.792969 155.742188 250.175781 156.769531 C 249.5625 157.800781 248.921875 158.8125 248.253906 159.808594 C 247.589844 160.808594 246.898438 161.789062 246.183594 162.75 C 245.46875 163.714844 244.734375 164.660156 243.972656 165.585938 C 243.210938 166.515625 242.429688 167.421875 241.625 168.3125 C 240.820312 169.199219 239.992188 170.070312 239.144531 170.917969 C 238.296875 171.765625 237.429688 172.59375 236.542969 173.398438 C 235.65625 174.203125 234.746094 174.988281 233.820312 175.75 C 232.894531 176.507812 231.949219 177.246094 230.988281 177.960938 C 230.023438 178.675781 229.042969 179.367188 228.046875 180.035156 C 227.050781 180.699219 226.039062 181.339844 225.011719 181.957031 C 223.984375 182.574219 222.941406 183.164062 221.882812 183.730469 C 220.828125 184.296875 219.757812 184.835938 218.671875 185.347656 C 217.589844 185.863281 216.492188 186.347656 215.386719 186.808594 C 214.277344 187.265625 213.160156 187.699219 212.03125 188.101562 C 210.902344 188.507812 209.765625 188.882812 208.617188 189.230469 C 207.472656 189.578125 206.316406 189.898438 205.15625 190.191406 C 203.992188 190.480469 202.824219 190.746094 201.648438 190.976562 C 200.472656 191.210938 199.292969 191.417969 198.105469 191.59375 C 196.921875 191.769531 195.730469 191.917969 194.539062 192.035156 C 193.34375 192.152344 192.148438 192.238281 190.953125 192.296875 C 189.753906 192.355469 188.558594 192.386719 187.359375 192.386719 C 186.160156 192.386719 184.964844 192.355469 183.765625 192.296875 C 182.570312 192.238281 181.375 192.152344 180.179688 192.035156 C 178.988281 191.917969 177.796875 191.769531 176.613281 191.59375 C 175.425781 191.417969 174.246094 191.210938 173.070312 190.976562 C 171.894531 190.746094 170.726562 190.480469 169.5625 190.191406 C 168.402344 189.898438 167.246094 189.578125 166.101562 189.230469 C 164.953125 188.882812 163.816406 188.507812 162.6875 188.101562 C 161.558594 187.699219 160.441406 187.265625 159.332031 186.808594 C 158.226562 186.347656 157.128906 185.863281 156.046875 185.347656 C 154.960938 184.835938 153.890625 184.296875 152.835938 183.730469 C 151.777344 183.164062 150.734375 182.574219 149.707031 181.957031 C 148.679688 181.339844 147.667969 180.699219 146.671875 180.035156 C 145.675781 179.367188 144.695312 178.675781 143.730469 177.960938 C 142.769531 177.246094 141.824219 176.507812 140.898438 175.75 C 139.972656 174.988281 139.0625 174.203125 138.175781 173.398438 C 137.289062 172.59375 136.421875 171.765625 135.574219 170.917969 C 134.726562 170.070312 133.898438 169.199219 133.09375 168.3125 C 132.289062 167.421875 131.507812 166.515625 130.746094 165.585938 C 129.984375 164.660156 129.25 163.714844 128.535156 162.75 C 127.820312 161.789062 127.128906 160.808594 126.464844 159.808594 C 125.796875 158.8125 125.15625 157.800781 124.542969 156.769531 C 123.925781 155.742188 123.335938 154.699219 122.769531 153.640625 C 122.203125 152.582031 121.664062 151.511719 121.152344 150.425781 C 120.640625 149.339844 120.15625 148.246094 119.695312 147.136719 C 119.238281 146.027344 118.808594 144.910156 118.402344 143.78125 C 118 142.652344 117.625 141.511719 117.277344 140.363281 C 116.925781 139.214844 116.609375 138.058594 116.316406 136.898438 C 116.027344 135.734375 115.761719 134.5625 115.527344 133.386719 C 115.296875 132.210938 115.089844 131.027344 114.914062 129.839844 C 114.738281 128.65625 114.59375 127.464844 114.472656 126.269531 C 114.355469 125.078125 114.269531 123.878906 114.210938 122.683594 C 114.152344 121.484375 114.121094 120.285156 114.121094 119.085938 C 114.125 117.886719 114.152344 116.6875 114.214844 115.492188 C 114.273438 114.292969 114.363281 113.097656 114.480469 111.902344 C 114.601562 110.710938 114.75 109.519531 114.925781 108.335938 C 115.101562 107.148438 115.308594 105.96875 115.542969 104.792969 C 115.777344 103.617188 116.039062 102.445312 116.332031 101.28125 C 116.625 100.121094 116.945312 98.964844 117.292969 97.816406 C 117.640625 96.667969 118.019531 95.53125 118.421875 94.402344 C 118.828125 93.273438 119.257812 92.15625 119.71875 91.046875 C 120.175781 89.941406 120.664062 88.84375 121.175781 87.761719 C 121.6875 86.675781 122.226562 85.605469 122.792969 84.546875 C 123.359375 83.492188 123.949219 82.449219 124.566406 81.417969 C 125.183594 80.390625 125.824219 79.378906 126.488281 78.382812 C 127.15625 77.382812 127.84375 76.40625 128.558594 75.441406 C 129.273438 74.476562 130.011719 73.53125 130.769531 72.605469 C 131.53125 71.679688 132.3125 70.773438 133.117188 69.882812 C 133.921875 68.996094 134.75 68.125 135.597656 67.277344 C 136.445312 66.429688 137.3125 65.605469 138.199219 64.796875 C 139.085938 63.992188 139.992188 63.210938 140.917969 62.449219 C 141.847656 61.6875 142.789062 60.949219 143.753906 60.234375 C 144.714844 59.519531 145.695312 58.832031 146.691406 58.164062 C 147.6875 57.496094 148.699219 56.855469 149.726562 56.238281 C 150.753906 55.621094 151.796875 55.03125 152.851562 54.464844 C 153.90625 53.898438 154.976562 53.359375 156.0625 52.847656 C 157.144531 52.332031 158.238281 51.847656 159.34375 51.386719 C 160.453125 50.925781 161.570312 50.496094 162.695312 50.089844 C 163.824219 49.683594 164.960938 49.308594 166.109375 48.960938 C 167.253906 48.609375 168.410156 48.289062 169.570312 47.996094 C 170.734375 47.707031 171.902344 47.441406 173.078125 47.207031 C 174.253906 46.972656 175.433594 46.765625 176.617188 46.589844 C 177.800781 46.410156 178.992188 46.265625 180.183594 46.144531 C 181.375 46.027344 182.570312 45.9375 183.765625 45.878906 C 184.964844 45.816406 186.160156 45.785156 187.359375 45.785156 Z M 317.558594 338.988281 L 57.160156 338.988281 L 57.160156 279.5 C 57.160156 277.277344 57.269531 275.0625 57.480469 272.847656 C 57.691406 270.636719 58.003906 268.4375 58.421875 266.257812 C 58.839844 264.074219 59.359375 261.914062 59.976562 259.78125 C 60.597656 257.648438 61.316406 255.546875 62.132812 253.480469 C 62.953125 251.414062 63.863281 249.390625 64.871094 247.410156 C 65.878906 245.429688 66.976562 243.503906 68.164062 241.625 C 69.355469 239.75 70.628906 237.929688 71.988281 236.171875 C 73.34375 234.417969 74.785156 232.726562 76.300781 231.105469 C 77.820312 229.484375 79.410156 227.9375 81.074219 226.464844 C 82.738281 224.992188 84.464844 223.601562 86.257812 222.289062 C 88.050781 220.980469 89.902344 219.757812 91.8125 218.621094 C 93.722656 217.488281 95.679688 216.445312 97.683594 215.492188 C 99.691406 214.539062 101.738281 213.6875 103.824219 212.925781 C 105.914062 212.167969 108.03125 211.507812 110.179688 210.949219 C 112.328125 210.390625 114.5 209.933594 116.691406 209.578125 C 118.882812 209.222656 121.085938 208.96875 123.300781 208.824219 L 130.707031 208.351562 C 132.804688 209.699219 134.953125 210.96875 137.140625 212.164062 C 139.332031 213.355469 141.5625 214.472656 143.832031 215.507812 C 146.101562 216.542969 148.40625 217.496094 150.746094 218.367188 C 153.082031 219.238281 155.449219 220.023438 157.839844 220.726562 C 160.234375 221.425781 162.652344 222.042969 165.089844 222.574219 C 167.527344 223.101562 169.980469 223.542969 172.449219 223.898438 C 174.917969 224.253906 177.398438 224.519531 179.886719 224.699219 C 182.375 224.875 184.863281 224.964844 187.359375 224.964844 C 189.855469 224.964844 192.34375 224.875 194.832031 224.699219 C 197.320312 224.519531 199.800781 224.253906 202.269531 223.898438 C 204.738281 223.542969 207.191406 223.101562 209.628906 222.574219 C 212.066406 222.042969 214.484375 221.425781 216.878906 220.726562 C 219.269531 220.023438 221.636719 219.238281 223.972656 218.367188 C 226.3125 217.496094 228.617188 216.542969 230.886719 215.507812 C 233.15625 214.472656 235.386719 213.355469 237.578125 212.164062 C 239.765625 210.96875 241.914062 209.699219 244.011719 208.351562 L 251.417969 208.824219 C 253.632812 208.96875 255.835938 209.222656 258.027344 209.578125 C 260.21875 209.933594 262.390625 210.390625 264.539062 210.949219 C 266.6875 211.507812 268.804688 212.167969 270.894531 212.925781 C 272.980469 213.6875 275.027344 214.539062 277.035156 215.492188 C 279.039062 216.445312 280.996094 217.488281 282.90625 218.621094 C 284.816406 219.757812 286.667969 220.980469 288.460938 222.289062 C 290.253906 223.601562 291.980469 224.992188 293.644531 226.464844 C 295.308594 227.9375 296.898438 229.484375 298.417969 231.105469 C 299.933594 232.726562 301.375 234.417969 302.730469 236.171875 C 304.089844 237.929688 305.363281 239.75 306.554688 241.625 C 307.742188 243.503906 308.839844 245.429688 309.847656 247.410156 C 310.855469 249.390625 311.765625 251.414062 312.585938 253.480469 C 313.402344 255.546875 314.121094 257.648438 314.742188 259.78125 C 315.359375 261.914062 315.878906 264.074219 316.296875 266.257812 C 316.714844 268.4375 317.027344 270.636719 317.238281 272.847656 C 317.449219 275.0625 317.554688 277.277344 317.558594 279.5 Z M 317.558594 338.988281 " fill-opacity="1" fill-rule="nonzero"/></g></svg>