<svg xmlns="http://www.w3.org/2000/svg" xmlns:xlink="http://www.w3.org/1999/xlink" width="500" zoomAndPan="magnify" viewBox="0 0 375 374.999991" height="500" preserveAspectRatio="xMidYMid meet" version="1.0"><defs><clipPath id="b8ddc99cb1"><path d="M 20.394531 188 L 354.894531 188 L 354.894531 371.117188 L 20.394531 371.117188 Z M 20.394531 188 " clip-rule="nonzero"/></clipPath><clipPath id="5645974d9f"><path d="M 78 3.617188 L 297 3.617188 L 297 221 L 78 221 Z M 78 3.617188 " clip-rule="nonzero"/></clipPath></defs><g clip-path="url(#b8ddc99cb1)"><path fill="#000000" d="M 307.359375 188.46875 C 305.769531 190.972656 304.097656 193.421875 302.351562 195.820312 C 300.605469 198.21875 298.785156 200.5625 296.890625 202.847656 C 295 205.132812 293.035156 207.355469 291 209.515625 C 288.96875 211.675781 286.867188 213.773438 284.703125 215.804688 C 282.535156 217.832031 280.308594 219.792969 278.019531 221.683594 C 275.730469 223.574219 273.382812 225.390625 270.980469 227.132812 C 268.578125 228.875 266.121094 230.539062 263.613281 232.128906 C 261.105469 233.71875 258.550781 235.226562 255.945312 236.65625 C 253.34375 238.082031 250.699219 239.429688 248.011719 240.691406 C 245.324219 241.953125 242.597656 243.128906 239.835938 244.222656 C 237.074219 245.3125 234.28125 246.316406 231.457031 247.234375 C 228.628906 248.148438 225.777344 248.976562 222.902344 249.714844 C 220.023438 250.449219 217.128906 251.097656 214.210938 251.652344 C 211.292969 252.207031 208.359375 252.671875 205.414062 253.042969 C 202.464844 253.414062 199.511719 253.695312 196.546875 253.878906 C 193.582031 254.066406 190.613281 254.160156 187.644531 254.160156 C 184.671875 254.160156 181.707031 254.066406 178.742188 253.878906 C 175.777344 253.695312 172.820312 253.414062 169.875 253.042969 C 166.925781 252.671875 163.992188 252.207031 161.078125 251.652344 C 158.160156 251.097656 155.261719 250.449219 152.382812 249.714844 C 149.507812 248.976562 146.65625 248.148438 143.832031 247.234375 C 141.003906 246.316406 138.210938 245.3125 135.449219 244.222656 C 132.6875 243.128906 129.964844 241.953125 127.277344 240.691406 C 124.589844 239.429688 121.941406 238.082031 119.339844 236.65625 C 116.734375 235.226562 114.179688 233.71875 111.671875 232.128906 C 109.164062 230.539062 106.707031 228.875 104.304688 227.132812 C 101.902344 225.390625 99.554688 223.574219 97.265625 221.683594 C 94.976562 219.792969 92.75 217.832031 90.585938 215.804688 C 88.417969 213.773438 86.320312 211.675781 84.285156 209.515625 C 82.25 207.355469 80.289062 205.132812 78.394531 202.847656 C 76.5 200.5625 74.679688 198.21875 72.933594 195.820312 C 71.1875 193.421875 69.519531 190.972656 67.925781 188.46875 C 64.292969 190.871094 60.820312 193.492188 57.511719 196.320312 C 54.203125 199.152344 51.078125 202.175781 48.140625 205.390625 C 45.203125 208.605469 42.472656 211.988281 39.953125 215.539062 C 37.433594 219.089844 35.140625 222.78125 33.074219 226.613281 C 31.011719 230.445312 29.1875 234.390625 27.609375 238.445312 C 26.03125 242.503906 24.707031 246.640625 23.636719 250.859375 C 22.566406 255.078125 21.761719 259.34375 21.21875 263.664062 C 20.675781 267.980469 20.402344 272.316406 20.394531 276.667969 L 20.394531 354.347656 C 20.394531 354.894531 20.417969 355.441406 20.472656 355.984375 C 20.527344 356.527344 20.609375 357.066406 20.714844 357.605469 C 20.820312 358.140625 20.953125 358.671875 21.113281 359.195312 C 21.273438 359.71875 21.457031 360.230469 21.667969 360.738281 C 21.875 361.242188 22.109375 361.734375 22.367188 362.21875 C 22.625 362.699219 22.90625 363.167969 23.210938 363.625 C 23.515625 364.078125 23.84375 364.515625 24.191406 364.941406 C 24.535156 365.363281 24.90625 365.769531 25.292969 366.15625 C 25.679688 366.542969 26.085938 366.90625 26.507812 367.253906 C 26.929688 367.601562 27.371094 367.925781 27.824219 368.230469 C 28.28125 368.535156 28.75 368.816406 29.234375 369.074219 C 29.71875 369.332031 30.210938 369.566406 30.71875 369.773438 C 31.222656 369.984375 31.738281 370.167969 32.261719 370.324219 C 32.789062 370.484375 33.316406 370.617188 33.855469 370.722656 C 34.390625 370.832031 34.933594 370.910156 35.480469 370.964844 C 36.023438 371.019531 36.570312 371.046875 37.117188 371.046875 L 338.167969 371.046875 C 338.714844 371.046875 339.261719 371.019531 339.808594 370.964844 C 340.351562 370.910156 340.894531 370.832031 341.429688 370.722656 C 341.96875 370.617188 342.5 370.484375 343.023438 370.324219 C 343.546875 370.167969 344.0625 369.984375 344.570312 369.773438 C 345.074219 369.566406 345.570312 369.332031 346.050781 369.074219 C 346.535156 368.816406 347.003906 368.535156 347.460938 368.230469 C 347.914062 367.925781 348.355469 367.601562 348.777344 367.253906 C 349.203125 366.90625 349.605469 366.542969 349.996094 366.15625 C 350.382812 365.769531 350.75 365.363281 351.097656 364.941406 C 351.445312 364.515625 351.769531 364.078125 352.074219 363.625 C 352.378906 363.167969 352.660156 362.699219 352.917969 362.21875 C 353.175781 361.734375 353.410156 361.242188 353.621094 360.738281 C 353.828125 360.230469 354.015625 359.71875 354.171875 359.195312 C 354.332031 358.671875 354.464844 358.140625 354.570312 357.605469 C 354.679688 357.066406 354.757812 356.527344 354.8125 355.984375 C 354.867188 355.441406 354.894531 354.894531 354.894531 354.347656 L 354.894531 276.667969 C 354.882812 272.316406 354.609375 267.980469 354.066406 263.664062 C 353.523438 259.34375 352.71875 255.078125 351.648438 250.859375 C 350.582031 246.640625 349.257812 242.503906 347.675781 238.445312 C 346.097656 234.390625 344.277344 230.445312 342.210938 226.613281 C 340.144531 222.78125 337.851562 219.089844 335.332031 215.539062 C 332.8125 211.988281 330.082031 208.605469 327.144531 205.390625 C 324.207031 202.175781 321.085938 199.152344 317.773438 196.320312 C 314.464844 193.492188 310.992188 190.871094 307.359375 188.46875 Z M 307.359375 188.46875 " fill-opacity="1" fill-rule="nonzero"/></g><g clip-path="url(#5645974d9f)"><path fill="#000000" d="M 296.355469 112.222656 C 296.355469 114 296.3125 115.777344 296.222656 117.550781 C 296.136719 119.324219 296.007812 121.09375 295.832031 122.863281 C 295.65625 124.632812 295.441406 126.394531 295.179688 128.148438 C 294.917969 129.90625 294.613281 131.65625 294.265625 133.398438 C 293.917969 135.140625 293.53125 136.875 293.097656 138.597656 C 292.664062 140.320312 292.191406 142.03125 291.675781 143.730469 C 291.15625 145.429688 290.601562 147.117188 290 148.789062 C 289.402344 150.460938 288.761719 152.117188 288.082031 153.761719 C 287.398438 155.402344 286.679688 157.023438 285.917969 158.628906 C 285.15625 160.234375 284.359375 161.824219 283.519531 163.390625 C 282.679688 164.957031 281.804688 166.5 280.890625 168.023438 C 279.972656 169.546875 279.023438 171.046875 278.035156 172.523438 C 277.046875 174 276.023438 175.453125 274.960938 176.878906 C 273.902344 178.308594 272.808594 179.707031 271.679688 181.082031 C 270.550781 182.453125 269.386719 183.796875 268.195312 185.113281 C 267 186.429688 265.773438 187.714844 264.515625 188.972656 C 263.257812 190.226562 261.96875 191.453125 260.648438 192.644531 C 259.332031 193.839844 257.984375 195 256.609375 196.125 C 255.234375 197.253906 253.832031 198.34375 252.402344 199.402344 C 250.972656 200.460938 249.519531 201.484375 248.039062 202.46875 C 246.5625 203.457031 245.058594 204.40625 243.53125 205.320312 C 242.007812 206.234375 240.457031 207.109375 238.890625 207.945312 C 237.320312 208.785156 235.730469 209.582031 234.125 210.339844 C 232.515625 211.101562 230.890625 211.820312 229.246094 212.5 C 227.601562 213.179688 225.941406 213.820312 224.265625 214.417969 C 222.59375 215.015625 220.902344 215.574219 219.199219 216.089844 C 217.5 216.605469 215.785156 217.078125 214.058594 217.507812 C 212.332031 217.941406 210.597656 218.332031 208.851562 218.675781 C 207.105469 219.023438 205.355469 219.328125 203.59375 219.585938 C 201.835938 219.847656 200.070312 220.066406 198.296875 220.238281 C 196.527344 220.414062 194.753906 220.542969 192.976562 220.632812 C 191.199219 220.71875 189.421875 220.761719 187.644531 220.761719 C 185.863281 220.761719 184.085938 220.71875 182.308594 220.632812 C 180.53125 220.542969 178.757812 220.414062 176.988281 220.238281 C 175.214844 220.066406 173.453125 219.847656 171.691406 219.585938 C 169.933594 219.328125 168.179688 219.023438 166.433594 218.675781 C 164.6875 218.332031 162.953125 217.941406 161.226562 217.507812 C 159.503906 217.078125 157.789062 216.605469 156.085938 216.089844 C 154.382812 215.574219 152.695312 215.015625 151.019531 214.417969 C 149.34375 213.820312 147.683594 213.179688 146.039062 212.5 C 144.398438 211.820312 142.769531 211.101562 141.164062 210.339844 C 139.554688 209.582031 137.964844 208.785156 136.394531 207.945312 C 134.828125 207.109375 133.28125 206.234375 131.753906 205.320312 C 130.226562 204.40625 128.726562 203.457031 127.246094 202.46875 C 125.765625 201.484375 124.3125 200.460938 122.882812 199.402344 C 121.453125 198.34375 120.050781 197.253906 118.675781 196.125 C 117.300781 195 115.953125 193.839844 114.636719 192.644531 C 113.316406 191.453125 112.03125 190.226562 110.773438 188.972656 C 109.511719 187.714844 108.289062 186.429688 107.09375 185.113281 C 105.898438 183.796875 104.734375 182.453125 103.605469 181.082031 C 102.476562 179.707031 101.382812 178.308594 100.324219 176.878906 C 99.265625 175.453125 98.242188 174 97.25 172.523438 C 96.261719 171.046875 95.3125 169.546875 94.398438 168.023438 C 93.484375 166.5 92.605469 164.957031 91.765625 163.390625 C 90.929688 161.824219 90.128906 160.234375 89.367188 158.628906 C 88.605469 157.023438 87.886719 155.402344 87.207031 153.761719 C 86.523438 152.117188 85.886719 150.460938 85.285156 148.789062 C 84.6875 147.117188 84.128906 145.429688 83.613281 143.730469 C 83.09375 142.03125 82.621094 140.320312 82.1875 138.597656 C 81.757812 136.875 81.367188 135.140625 81.019531 133.398438 C 80.671875 131.65625 80.367188 129.90625 80.105469 128.148438 C 79.847656 126.394531 79.628906 124.632812 79.453125 122.863281 C 79.28125 121.09375 79.148438 119.324219 79.0625 117.550781 C 78.972656 115.777344 78.929688 114 78.929688 112.222656 C 78.929688 110.449219 78.972656 108.671875 79.0625 106.898438 C 79.148438 105.125 79.28125 103.355469 79.453125 101.585938 C 79.628906 99.816406 79.847656 98.054688 80.105469 96.296875 C 80.367188 94.542969 80.671875 92.792969 81.019531 91.050781 C 81.367188 89.308594 81.757812 87.574219 82.1875 85.851562 C 82.621094 84.128906 83.09375 82.417969 83.613281 80.71875 C 84.128906 79.019531 84.6875 77.332031 85.285156 75.660156 C 85.886719 73.988281 86.523438 72.332031 87.207031 70.6875 C 87.886719 69.046875 88.605469 67.425781 89.367188 65.820312 C 90.128906 64.214844 90.929688 62.625 91.765625 61.058594 C 92.605469 59.492188 93.484375 57.949219 94.398438 56.425781 C 95.3125 54.902344 96.261719 53.402344 97.25 51.925781 C 98.242188 50.449219 99.265625 48.996094 100.324219 47.570312 C 101.382812 46.140625 102.476562 44.742188 103.605469 43.367188 C 104.734375 41.996094 105.898438 40.652344 107.09375 39.335938 C 108.289062 38.019531 109.511719 36.734375 110.773438 35.476562 C 112.03125 34.222656 113.316406 32.996094 114.636719 31.804688 C 115.953125 30.609375 117.300781 29.449219 118.675781 28.324219 C 120.050781 27.195312 121.453125 26.105469 122.882812 25.046875 C 124.3125 23.988281 125.765625 22.964844 127.246094 21.980469 C 128.726562 20.992188 130.226562 20.042969 131.753906 19.128906 C 133.28125 18.214844 134.828125 17.339844 136.394531 16.503906 C 137.964844 15.664062 139.554688 14.867188 141.164062 14.109375 C 142.769531 13.347656 144.398438 12.628906 146.039062 11.949219 C 147.683594 11.269531 149.34375 10.628906 151.019531 10.03125 C 152.695312 9.433594 154.382812 8.875 156.085938 8.359375 C 157.789062 7.84375 159.503906 7.371094 161.226562 6.941406 C 162.953125 6.507812 164.6875 6.117188 166.433594 5.773438 C 168.179688 5.425781 169.933594 5.121094 171.691406 4.863281 C 173.453125 4.601562 175.214844 4.382812 176.988281 4.210938 C 178.757812 4.035156 180.53125 3.90625 182.308594 3.816406 C 184.085938 3.730469 185.863281 3.6875 187.644531 3.6875 C 189.421875 3.6875 191.199219 3.730469 192.976562 3.816406 C 194.753906 3.90625 196.527344 4.035156 198.296875 4.210938 C 200.070312 4.382812 201.835938 4.601562 203.59375 4.863281 C 205.355469 5.121094 207.105469 5.425781 208.851562 5.773438 C 210.597656 6.117188 212.332031 6.507812 214.058594 6.941406 C 215.785156 7.371094 217.5 7.84375 219.199219 8.359375 C 220.902344 8.875 222.59375 9.433594 224.265625 10.03125 C 225.941406 10.628906 227.601562 11.269531 229.246094 11.949219 C 230.890625 12.628906 232.515625 13.347656 234.125 14.109375 C 235.730469 14.867188 237.320312 15.664062 238.890625 16.503906 C 240.457031 17.339844 242.007812 18.214844 243.53125 19.128906 C 245.058594 20.042969 246.5625 20.992188 248.039062 21.980469 C 249.519531 22.964844 250.972656 23.988281 252.402344 25.046875 C 253.832031 26.105469 255.234375 27.195312 256.609375 28.324219 C 257.984375 29.449219 259.332031 30.609375 260.648438 31.804688 C 261.96875 32.996094 263.257812 34.222656 264.515625 35.476562 C 265.773438 36.734375 267 38.019531 268.195312 39.335938 C 269.386719 40.652344 270.550781 41.996094 271.679688 43.367188 C 272.808594 44.742188 273.902344 46.140625 274.960938 47.570312 C 276.023438 48.996094 277.046875 50.449219 278.035156 51.925781 C 279.023438 53.402344 279.972656 54.902344 280.890625 56.425781 C 281.804688 57.949219 282.679688 59.492188 283.519531 61.058594 C 284.359375 62.625 285.15625 64.214844 285.917969 65.820312 C 286.679688 67.425781 287.398438 69.046875 288.082031 70.6875 C 288.761719 72.332031 289.402344 73.988281 290 75.660156 C 290.601562 77.332031 291.15625 79.019531 291.675781 80.71875 C 292.191406 82.417969 292.664062 84.128906 293.097656 85.851562 C 293.53125 87.574219 293.917969 89.308594 294.265625 91.050781 C 294.613281 92.792969 294.917969 94.542969 295.179688 96.296875 C 295.441406 98.054688 295.65625 99.816406 295.832031 101.585938 C 296.007812 103.355469 296.136719 105.125 296.222656 106.898438 C 296.3125 108.671875 296.355469 110.449219 296.355469 112.222656 Z M 296.355469 112.222656 " fill-opacity="1" fill-rule="nonzero"/></g></svg>